<?xml version="1.0" standalone="no"?>
<!DOCTYPE svg PUBLIC "-//W3C//DTD SVG 20010904//EN"
 "http://www.w3.org/TR/2001/REC-SVG-20010904/DTD/svg10.dtd">
<svg version="1.0" xmlns="http://www.w3.org/2000/svg"
 width="2083.000000pt" height="2083.000000pt" viewBox="0 0 2083.000000 2083.000000"
 preserveAspectRatio="xMidYMid meet">
<metadata>
Created by potrace 1.11, written by Peter Selinger 2001-2013
</metadata>
<g transform="translate(0.000000,2083.000000) scale(0.100000,-0.100000)"
fill="#000000" stroke="none">
<path d="M20 10425 l0 -10405 10405 0 10405 0 0 10405 0 10405 -10405 0
-10405 0 0 -10405z m18105 7704 l-2630 -2630 120 72 c199 120 396 205 638 275
535 154 1228 174 1817 54 343 -71 662 -198 920 -367 641 -421 1001 -1087 1126
-2078 14 -108 17 -269 21 -942 l4 -813 -910 0 -911 0 0 713 c0 402 -4 760 -10
822 -50 541 -262 843 -669 953 -90 24 -110 26 -316 26 -205 0 -226 -2 -315
-26 -385 -104 -591 -370 -662 -856 -19 -130 -19 -7118 0 -7242 76 -494 295
-759 702 -846 121 -26 429 -26 550 0 337 72 543 267 649 611 12 39 32 120 43
180 21 106 21 143 25 1118 l4 1007 910 0 909 0 0 -943 c0 -964 -4 -1089 -41
-1362 -161 -1183 -763 -1959 -1752 -2259 -366 -111 -710 -153 -1177 -143 -294
6 -476 25 -698 72 -1170 247 -1865 1055 -2032 2360 -41 320 -41 396 -38 3955
4 3772 -1 3480 64 3870 71 427 217 832 408 1130 23 36 46 72 50 80 5 8 -355
-348 -800 -792 l-808 -807 -1 -808 0 -808 -810 -3 -810 -2 -617 -618 -618
-617 -475 475 -475 475 0 -2597 c0 -2821 -2 -2698 55 -2922 31 -125 106 -281
178 -372 157 -200 417 -304 757 -304 361 0 633 118 787 342 63 91 83 131 121
240 43 122 70 272 82 456 5 86 10 550 10 1030 l0 872 910 0 910 0 0 -903 c0
-925 -5 -1097 -41 -1377 -99 -780 -397 -1398 -871 -1805 -384 -330 -856 -523
-1473 -602 -202 -26 -770 -26 -970 0 -663 85 -1159 299 -1549 668 -485 459
-760 1127 -826 2009 -7 88 -10 1362 -10 3665 l1 3529 -583 583 c-320 320 -584
581 -585 579 -2 -2 8 -29 22 -60 74 -168 155 -449 199 -696 41 -229 56 -383
68 -708 13 -339 1 -801 -27 -1042 -65 -546 -224 -974 -490 -1315 -81 -103
-258 -274 -364 -349 -115 -82 -272 -174 -375 -220 -57 -26 -86 -44 -86 -55 1
-10 28 -29 78 -51 243 -111 497 -302 670 -505 315 -368 507 -866 572 -1480 29
-280 41 -1279 20 -1730 -43 -911 -291 -1594 -755 -2074 -200 -208 -385 -342
-650 -472 -301 -147 -613 -233 -1020 -281 -173 -20 -754 -17 -930 5 -863 110
-1472 456 -1877 1067 -234 353 -388 786 -458 1289 -40 289 -44 397 -45 1066
l0 650 910 0 910 0 5 -705 c6 -669 7 -711 27 -820 47 -244 126 -419 251 -552
154 -164 359 -248 644 -264 316 -18 574 62 744 231 196 194 287 472 315 962
17 291 6 1390 -15 1563 -74 596 -284 920 -684 1056 -206 70 -349 84 -839 84
l-363 0 0 875 0 875 413 0 c542 0 691 15 883 89 123 47 201 99 295 191 161
160 251 365 295 674 21 149 31 939 15 1216 -23 387 -85 642 -205 834 -44 70
-143 178 -201 217 -67 45 -174 92 -264 117 -90 24 -110 26 -316 26 -207 0
-226 -2 -319 -27 -366 -99 -564 -341 -652 -797 -14 -70 -17 -178 -21 -622 l-5
-538 -915 0 -916 0 6 503 c6 535 16 684 62 964 219 1310 998 2082 2270 2248
227 29 516 40 753 27 428 -24 726 -84 1077 -216 l70 -27 -2515 2516 -2515
2515 10295 0 10295 0 -2630 -2631z"/>
</g>
</svg>
